<svg xmlns="http://www.w3.org/2000/svg" viewBox="0 0 434.14 333.66"><defs><style>.cls-1{fill:#fff;}</style></defs><g id="Ebene_1" data-name="Ebene 1"><rect class="cls-1" y="223.08" width="158.14" height="9.39" rx="4.07"/><path class="cls-1" d="M417.27,218.11v-107A21.32,21.32,0,1,0,396,74.91L297.76,18.82a14.72,14.72,0,0,0-1.68-10.7,15.73,15.73,0,0,0-11.54-8A15.55,15.55,0,0,0,267,15.55a15.3,15.3,0,0,0,.4,3.41L171.14,75.21a21.32,21.32,0,1,0-20.27,35.33v45.4A15.48,15.48,0,0,0,140.81,166H54.62a4.07,4.07,0,0,0-4.06,4.07v1.25a4.07,4.07,0,0,0,4.06,4.07h86.19a15.51,15.51,0,1,0,19.44-19.45v-45.4l1.54-.41L268.19,296.6a21.19,21.19,0,0,0-2,2l-37.86-19.45c1.17-4.3,1.19-9.06-5.19-15.31a14.1,14.1,0,0,0-9.77-4.28A15.54,15.54,0,0,0,198.17,272H115.42a4.07,4.07,0,0,0-4.07,4.07v1.25a4.07,4.07,0,0,0,4.07,4.07h83.76a15.43,15.43,0,0,0,24,5.71L261.93,307a20.19,20.19,0,0,0,1.61,14.64,21.59,21.59,0,0,0,16.57,11.88A21.34,21.34,0,0,0,303,306.09l93.53-53.38a21.33,21.33,0,1,0,20.77-34.6ZM272.18,27.05a15.36,15.36,0,0,0,20.89-.1l97.32,55.54a22.33,22.33,0,0,0-.94,2.56H176.37l-.47-1.75Zm5.69,264.46-1.54.41L169.94,105.47l1.32-1.32,82.9,47.52a30.35,30.35,0,0,0,23.71,40.91Zm-19.05-148L176,96l.42-1.58H388.86a21.38,21.38,0,0,0,.6,2.75l-83,46.55a30.39,30.39,0,0,0-47.66-.22Zm28.44,148V192.58a30.35,30.35,0,0,0,23.81-40.65l83-46.57a20.69,20.69,0,0,0,2.69,2.52L289,292Zm120.62-73.28a21.2,21.2,0,0,0-15.69,26.13L298.29,298l-1.18-1.2L405.27,111.91a20.28,20.28,0,0,0,2.61.42Z"/></g></svg>